# AST/ASF file generated using VICON BodyLanguage
# -----------------------------------------------
:version 1.10
:name VICON
:units
  mass 1.0
  length 0.45
  angle deg
:documentation
   .ast/.asf automatically generated from VICON data using
   VICON BodyBuilder and BodyLanguage model FoxedUp or BRILLIANT.MOD
:root
   order TX TY TZ RX RY RZ
   axis XYZ
   position 0 0 0  
   orientation 0 0 0 
:bonedata
  begin
     id 1 
     name lhipjoint
     direction 0.575328 -0.747301 0.332475 
     length 2.40933 
     axis 0 0 0  XYZ
  end
  begin
     id 2 
     name lfemur
     direction 0.34202 -0.939693 0  
     length 7.31453  
     axis 0 0 20  XYZ
    dof rx ry rz
    limits (-160.0 20.0)
           (-70.0 70.0)
           (-60.0 70.0)
  end
  begin
     id 3 
     name ltibia
     direction 0.34202 -0.939693 0   
     length 7.82185   
     axis 0 0 20   XYZ
    dof rx
    limits (-10.0 170.0)
  end
  begin
     id 4 
     name lfoot
     direction 0.0795993 -0.218697 0.972541   
     length 2.19173   
     axis -90 7.62852e-016 20   XYZ
    dof rx rz
    limits (-45.0 90.0)
           (-70.0 20.0)
  end
  begin
     id 5 
     name ltoes
     direction 1.53537e-011 -4.21894e-011 1   
     length 1.10023   
     axis -90 7.62852e-016 20   XYZ
    dof rx
    limits (-90.0 20.0)
  end
  begin
     id 6 
     name rhipjoint
     direction -0.513884 -0.783789 0.348708   
     length 2.29716  
     axis 0 0 0  XYZ 
  end
  begin
     id 7 
     name rfemur
     direction -0.34202 -0.939693 0   
     length 7.59573   
     axis 0 0 -20   XYZ
    dof rx ry rz
    limits (-160.0 20.0)
           (-70.0 70.0)
           (-70.0 60.0)
  end
  begin
     id 8 
     name rtibia
     direction -0.34202 -0.939693 0   
     length 7.66402   
     axis 0 0 -20   XYZ
    dof rx
    limits (-10.0 170.0)
 end
 begin
     id 9 
     name rfoot
     direction -0.137793 -0.378584 0.915253   
     length 2.27056  
     axis -90 -7.62852e-016 -20   XYZ
    dof rx rz
    limits (-45.0 90.0)
           (-20.0 70.0)
  end
  begin
     id 10 
     name rtoes
     direction -1.53493e-011 -4.22159e-011 1   
     length 1.11766   
     axis -90 -7.62852e-016 -20   XYZ
    dof rx
    limits (-90.0 20.0)
  end
  begin
     id 11 
     name lowerback
     direction -0.00732775 0.998356 -0.05685   
     length 2.16513   
     axis 0 0 0   XYZ
    dof rx ry rz
    limits (-20.0 45.0)
           (-30.0 30.0)
           (-30.0 30.0)
  end
  begin
     id 12 
     name upperback
     direction 0.0218081 0.999627 -0.0164647   
     length 2.16755   
     axis 0 0 0   XYZ
    dof rx ry rz
    limits (-20.0 45.0)
           (-30.0 30.0)
           (-30.0 30.0)
  end
  begin
     id 13 
     name thorax
     direction 0.02365 0.999661 0.0108914   
     length 2.16932   
     axis 0 0 0   XYZ
    dof rx ry rz
    limits (-20.0 45.0)
           (-30.0 30.0)
           (-30.0 30.0)
  end
  begin
     id 14 
     name lowerneck
     direction -0.0523929 0.978385 0.200044   
     length 1.63877   
     axis 0 0 0   XYZ
    dof rx ry rz
    limits (-20.0 45.0)
           (-30.0 30.0)
           (-30.0 30.0)
  end
  begin
     id 15 
     name upperneck
     direction 0.0448674 0.981321 -0.187074   
     length 1.69014   
     axis 0 0 0   XYZ
    dof rx ry rz
    limits (-20.0 45.0)
           (-30.0 30.0)
           (-30.0 30.0)
  end
  begin
     id 16
     name head
     direction 0.0199089 0.996118 -0.0857429  
     length 1.70094  
     axis 0 0 0   XYZ
    dof rx ry rz
    limits (-20.0 45.0)
           (-30.0 30.0)
           (-30.0 30.0)
  end
  begin
     id 17 
     name lclavicle
     direction 0.940366 0.30191 -0.156722  
     length 3.37521  
     axis 0 0 0   XYZ
    dof ry rz
    limits (-20.0 10.0)
           (0.0 20.0)
  end
  begin
     id 18 
     name lhumerus
     direction 1 -4.4897e-011 -1.7911e-027   
     length 5.25287   
     axis 180 -30 -90   XYZ
    dof rx ry rz
    limits (-60.0 90.0)
           (-90.0 90.0)
           (-90.0 90.0)
  end
  begin
     id 19
     name lradius
     direction 1 -4.48951e-011 1.04424e-027   
     length 3.51014   
     axis 180 -30 -90   XYZ
    dof rx
    limits (-10.0 170.0)
  end
  begin
     id 20
     name lwrist
     direction 1 -4.48997e-011 -9.5942e-028   
     length 1.75507   
     axis 8.48502e-016 90 90   XYZ
    dof ry
    limits (-180.0 0.0)
 end
  begin
     id 21 
     name lhand
     direction 1 -4.48831e-011 -1.90777e-027   
     length 0.706179   
     axis 1.22306e-015 90 90   XYZ
    dof rx rz
    limits (-90.0 90.0)
           (-45.0 45.0)
  end
  begin
     id 22 
     name lfingers
     direction 1 -4.49108e-011 -3.85244e-027   
     length 0.569339   
     axis 2.44611e-015 90 90   XYZ
    dof rx
    limits (0.0 90.0)
  end
  begin
     id 23
     name lthumb
     direction 0.707107 -6.34953e-011 0.707107   
     length 0.817461   
     axis -90 45 -1.62303e-014   XYZ
    dof rx rz
    limits (-45.0 45.0)
           (-45.0 45.0)
  end
  begin
     id 24 
     name rclavicle
     direction -0.905329 0.382405 -0.184787   
     length 3.30787  
     axis 0 0 0   XYZ 
    dof ry rz
    limits (-10.0 20.0)
           (-20.0 0.0)
  end
  begin
     id 25 
     name rhumerus
     direction -1 -4.48953e-011 -9.15316e-029  
     length 5.28721   
     axis 180 30 90   XYZ
    dof rx ry rz
    limits (-90.0 60.0)
           (-90.0 90.0)
           (-90.0 90.0)
  end
  begin
     id 26 
     name rradius
     direction -1 -4.48987e-011 9.37824e-028   
     length 3.50544   
     axis 180 30 90   XYZ
    dof rx
    limits (-10.0 170.0)
  end
  begin
     id 27 
     name rwrist
     direction -1 -4.48967e-011 -9.58414e-028   
     length 1.75272   
     axis 8.48502e-016 -90 -90   XYZ
    dof ry
    limits (-180.0 0.0)
  end
  begin
     id 28
     name rhand
     direction -1 -4.48904e-011 -1.91266e-027   
     length 0.884996   
     axis 1.22306e-015 -90 -90   XYZ
    dof rx rz
    limits (-90.0 90.0)
           (-45.0 45.0)
  end
  begin
     id 29
     name rfingers
     direction -1 -4.4909e-011 -3.85015e-027   
     length 0.713507   
     axis 2.44611e-015 -90 -90   XYZ
    dof rx
    limits (0.0 90.0)
  end
  begin
     id 30
     name rthumb
     direction -0.707107 -6.34853e-011 0.707107   
     length 1.02446   
     axis -90 -45 1.62303e-014   XYZ
    dof rx rz
    limits (-45.0 45.0)
           (-45.0 45.0)
  end
:hierarchy
  begin
    root lhipjoint rhipjoint lowerback
    lhipjoint lfemur
    lfemur ltibia
    ltibia lfoot
    lfoot ltoes
    rhipjoint rfemur
    rfemur rtibia
    rtibia rfoot
    rfoot rtoes
    lowerback upperback
    upperback thorax
    thorax lowerneck lclavicle rclavicle
    lowerneck upperneck
    upperneck head
    lclavicle lhumerus
    lhumerus lradius
    lradius lwrist
    lwrist lhand lthumb
    lhand lfingers
    rclavicle rhumerus
    rhumerus rradius
    rradius rwrist
    rwrist rhand rthumb
    rhand rfingers
  end

#!OML:ASF F:\twosubjects\two\Thursday\Session 1\justin.ASF
:FULLY-SPECIFIED
:DEGREES
83
root -3.24311 18.4931 13.2795 -0.333882 29.856 -1.21464
lowerback 1.92757 4.89459 0.719382
upperback 3.82317 6.48858 4.2551
thorax 2.44633 3.22346 3.98064
lowerneck -11.8546 16.8036 3.50848
upperneck 31.8666 25.9472 -4.06559
head 13.8215 11.4941 2.00458
rclavicle 1.29409e-013 -5.88403e-014
rhumerus -22.3737 -14.7024 -79.9659
rradius 27.7654
rwrist 1.4645
rhand -25.6914 12.9903
rfingers 7.12502
rthumb 0.843843 -16.9878
lclavicle 1.29409e-013 -5.88403e-014
lhumerus -23.361 16.8452 84.3796
lradius 25.3588
lwrist -12.1689
lhand -1.83344 37.5714
lfingers 7.12502
lthumb 23.8331 66.1129
rfemur -12.5503 -9.63193 22.508
rtibia 24.987
rfoot -13.2665 -10.2125
rtoes -8.21954
lfemur -14.0505 -7.38954 -10.1172
ltibia 55.1234
lfoot 6.48097 -18.4436
ltoes -21.1323
84
root -3.23233 18.4945 13.3802 -0.309518 29.433 -1.10553
lowerback 1.69471 4.88839 0.571078
upperback 3.9606 6.46926 4.2961
thorax 2.69959 3.20606 4.13685
lowerneck -11.59 16.9066 3.73554
upperneck 31.2931 26.1861 -4.75312
head 13.6932 11.5762 1.73389
rclavicle -8.94531e-015 -2.06736e-014
rhumerus -21.0873 -12.8734 -80.7502
rradius 28.3021
rwrist 0.784507
rhand -24.9278 13.0839
rfingers 7.12502
rthumb 1.58126 -16.89
lclavicle -8.94531e-015 -2.06736e-014
lhumerus -23.6652 18.1891 84.1213
lradius 24.0793
lwrist -13.237
lhand -2.68 37.8991
lfingers 7.12502
lthumb 23.021 66.5442
rfemur -12.0344 -9.4548 22.5395
rtibia 24.8125
rfoot -13.5813 -10.1053
rtoes -7.50417
lfemur -14.7792 -7.00239 -10.2786
ltibia 56.0908
lfoot 5.18659 -16.8932
ltoes -21.7547
85
root -3.21859 18.5067 13.4811 -0.554706 29.062 -1.43745
lowerback 1.65283 4.9289 0.974828
upperback 3.97996 6.51892 4.37089
thorax 2.7763 3.23995 3.99833
lowerneck -11.4326 16.9288 3.76146
upperneck 30.9977 26.1999 -4.89452
head 13.5638 11.5934 1.65214
rclavicle -1.66979e-014 9.54166e-015
rhumerus -20.0672 -11.4068 -81.393
rradius 28.808
rwrist 0.200673
rhand -24.1459 13.1913
rfingers 7.12502
rthumb 2.33644 -16.7757
lclavicle -1.66979e-014 9.54166e-015
lhumerus -24.3614 19.1391 83.8279
lradius 23.4506
lwrist -14.4867
lhand -2.62121 38.4633
lfingers 7.12502
lthumb 23.0775 67.1014
rfemur -11.4414 -9.26612 22.953
rtibia 24.5518
rfoot -13.7612 -10.0278
rtoes -7.08316
lfemur -15.484 -6.74441 -9.97238
ltibia 56.9046
lfoot 4.74661 -15.1659
ltoes -20.044
86
root -3.21 18.5148 13.5793 -0.726824 28.7403 -1.55893
lowerback 1.84517 5.03071 1.19954
upperback 3.91844 6.66248 4.36248
thorax 2.62272 3.31941 3.84262
lowerneck -11.3171 17.0565 3.66414
upperneck 30.9752 26.3421 -4.71117
head 13.4888 11.68 1.73229
rclavicle 3.63776e-014 1.43125e-014
rhumerus -19.2265 -10.4375 -81.8307
rradius 29.3553
rwrist 0.16664
rhand -23.4582 13.5217
rfingers 7.12502
rthumb 3.0006 -16.4369
lclavicle 3.63776e-014 1.43125e-014
lhumerus -25.0563 20.2185 83.4593
lradius 22.9388
lwrist -16.4056
lhand -1.37596 40.6096
lfingers 7.12502
lthumb 24.2718 69.0931
rfemur -10.7708 -8.94884 23.1791
rtibia 24.1226
rfoot -13.9384 -10.1256
rtoes -7.07498
lfemur -16.1389 -6.52589 -9.88446
ltibia 57.5874
lfoot 4.13677 -13.6163
ltoes -18.5766
87
root -3.19891 18.5287 13.6822 -0.643553 28.2996 -1.46779
lowerback 1.96141 5.19684 1.27928
upperback 3.73735 6.89428 4.22331
thorax 2.38338 3.44034 3.63007
lowerneck -11.686 16.9222 4.09924
upperneck 31.4831 26.1234 -4.62791
head 13.8249 11.5815 1.7494
rclavicle 1.98785e-014 -3.02153e-014
rhumerus -18.6297 -9.46065 -82.2627
rradius 30.0744
rwrist -0.0222068
rhand -22.9223 13.6316
rfingers 7.12502
rthumb 3.51816 -16.3191
lclavicle 1.98785e-014 -3.02153e-014
lhumerus -25.6288 21.7121 82.7763
lradius 21.7311
lwrist -18.5948
lhand -0.685092 42.1437
lfingers 7.12502
lthumb 24.934 70.5371
rfemur -10.3709 -8.45805 23.1834
rtibia 23.7971
rfoot -14.0736 -10.1096
rtoes -6.37465
lfemur -16.7924 -6.07672 -10.071
ltibia 57.9645
lfoot 3.31206 -12.1984
ltoes -18.3485
88
root -3.18481 18.5211 13.7869 -0.640851 27.9007 -1.45039
lowerback 1.9724 5.30623 1.39309
upperback 3.65186 7.04343 4.12628
thorax 2.30679 3.51865 3.46057
lowerneck -11.859 16.913 3.82202
upperneck 31.4735 26.0321 -4.27927
head 13.7417 11.5529 1.89292
rclavicle -5.20816e-014 -2.06736e-014
rhumerus -17.9056 -8.2961 -82.6984
rradius 30.8344
rwrist -0.642538
rhand -22.2779 13.4164
rfingers 7.12502
rthumb 4.14044 -16.5231
lclavicle -5.20816e-014 -2.06736e-014
lhumerus -26.1517 23.7738 81.8464
lradius 20.1671
lwrist -20.9795
lhand -1.08982 41.2427
lfingers 7.12502
lthumb 24.5461 69.6893
rfemur -9.80764 -8.30299 23.2943
rtibia 23.6121
rfoot -14.2535 -10.0143
rtoes -7.52329
lfemur -17.3495 -5.79027 -10.1858
ltibia 58.1949
lfoot 2.37891 -10.7004
ltoes -18.1432
